<?xml version="1.0" encoding="utf-8"?>
<!-- Svg Vector Icons : http://www.onlinewebfonts.com/icon -->
<!DOCTYPE svg PUBLIC "-//W3C//DTD SVG 1.1//EN" "http://www.w3.org/Graphics/SVG/1.1/DTD/svg11.dtd">
<svg version="1.1" xmlns="http://www.w3.org/2000/svg" xmlns:xlink="http://www.w3.org/1999/xlink" x="0px" y="0px" viewBox="0 0 256 256" enable-background="new 0 0 256 256" xml:space="preserve">
<metadata> Svg Vector Icons : http://www.onlinewebfonts.com/icon </metadata>
<g><g><g><path fill="#000000" d="M117.3,10.4c-27.7,2.6-52.6,14.4-72.6,34.3C24.3,65.3,13.2,89,10.4,118.3c-2.1,22.2,3.7,48.3,15.2,68.4c22.3,39,67,62.7,111.1,58.9c29.8-2.6,53.9-13.8,74.6-34.3c35.8-35.8,44.7-88.2,23-134.4c-10.5-22.3-30.9-43.1-53.8-54.6C162.2,13.1,137.8,8.5,117.3,10.4z M148.4,28.3c20.5,4.6,36.6,13.4,51.3,28c18.4,18.3,28.4,40.9,29.7,66.9c0.4,9-0.6,21.7-1.8,25.2c-0.9,2.2-16.2,5.5-31.3,6.9c-33.4,2.9-69.7-8.4-97.4-30.5c-5.2-4.2-17.2-16.1-21.3-21.2C69.5,93.5,61.2,79,56.3,66l-2.8-7.2l5.6-5.3c14.8-14.2,34.2-23.1,57.4-26.6C121.4,26.2,143,27.1,148.4,28.3z M45.9,83.6c7.4,16,18.2,30.9,32.2,44.5c25.2,24.4,56.6,39.1,92.3,43.2c13.5,1.5,37.4,0.2,49.1-2.9l2.2-0.6L218,175c-2,4-4.3,7.4-5,7.7c-9.6,3-36.6,4.6-50.6,3C108,179.5,61.8,146.8,38.3,98c-2.1-4.4-3.8-8.5-3.8-9c0-1.4,6.2-13.8,7-13.8C41.8,75.2,43.8,79,45.9,83.6z M31.5,119.9c15.4,26.6,44.3,52.8,73,66.2c25.4,11.8,47.4,16.6,76.3,16.6l16.4-0.1l-3.2,2.7c-12.2,10.5-29,18.6-45.9,22.3c-9.4,2.1-30.5,2.1-39.8,0.1c-20.7-4.5-37.1-13.3-51.9-28.1c-18.3-18.3-28.2-40.5-29.7-66.1c-0.4-7.8,0.2-20,0.9-20C27.7,113.6,29.5,116.5,31.5,119.9z"/></g></g></g>
</svg>